<svg xmlns="http://www.w3.org/2000/svg" viewBox="0 0 50.62 42.52"><defs><style>.cls-1{fill:#a5a5a5;}</style></defs><title>资源 88</title><g id="图层_2" data-name="图层 2"><g id="图层_1-2" data-name="图层 1"><path class="cls-1" d="M40,39.86a2.6,2.6,0,1,0,2.6-2.66A2.63,2.63,0,0,0,40,39.86Z"/><path class="cls-1" d="M45.43,31.89H15.57S10,13.84,6.49,1.34C6-.24,5.14,0,3.89,0H2.6C1.15,0,0,0,0,1.34S1.25,2.67,2.6,2.67H3.89c1.26,0,10.39,31.88,10.39,31.88H45.43A1.33,1.33,0,0,0,45.43,31.89Z"/><polygon class="cls-1" points="18.17 29.24 45.14 29.24 50.62 9.31 11.68 9.31 18.17 29.24"/><path class="cls-1" d="M14,39.86a2.6,2.6,0,1,0,2.6-2.66A2.63,2.63,0,0,0,14,39.86Z"/></g></g></svg>