<svg xmlns="http://www.w3.org/2000/svg" viewBox="0 0 45.28 42.52"><defs><style>.cls-1{fill:#a5a5a5;}</style></defs><title>资源 90</title><g id="图层_2" data-name="图层 2"><g id="图层_1-2" data-name="图层 1"><path class="cls-1" d="M43,17.69a20.5,20.5,0,0,0-40.61,0,2.85,2.85,0,1,0,1.42.1,19.07,19.07,0,0,1,37.76,0,2.86,2.86,0,0,0,0,5.42A19.16,19.16,0,0,1,27.15,39a2.22,2.22,0,0,0-1.86-1H20a2.24,2.24,0,1,0,0,4.47h5.3a2.25,2.25,0,0,0,2.24-2.12A20.54,20.54,0,0,0,43,23.3a2.85,2.85,0,0,0,0-5.61ZM37.62,20.5a15,15,0,1,0-15,15A15,15,0,0,0,37.62,20.5Z"/></g></g></svg>